# xmcd
# 
# Track frame offsets:
#     150
#     21763
#     38694
#     59390
#     74605
#     85453
#     101235
#     114008
#     130689
#     141762
#     153079
# 
# Disc length: 2329
# 
# Revision: 1
# Processed by: cddbd v1.5.2PL0 Copyright (c) Steve Scherf et al.
# Submitted via: fre:ac v1.0.17
# 
DISCID=8d09170b
DTITLE=Lowell George - thanks I'll eat it here - the deluxe edition
DYEAR=1979
DGENRE=Rock
TTITLE0=What Do You Want The Girl to Do
TTITLE1=Honest Man
TTITLE2=Two Trains
TTITLE3=I Can't Stand The Rain
TTITLE4=Cheek to Cheek
TTITLE5=Easy Money
TTITLE6=20 Million Things
TTITLE7=Find A River
TTITLE8=Himmler's Ring
TTITLE9=Heartache (originally released on CD only)
TTITLE10=What Do You Want The Girl to Do (mono 45 promo version)
EXTD=
EXTT0=
EXTT1=
EXTT2=
EXTT3=
EXTT4=
EXTT5=
EXTT6=
EXTT7=
EXTT8=
EXTT9=
EXTT10=
PLAYORDER=
